<?xml version="1.0" standalone="no"?>
<!DOCTYPE svg PUBLIC "-//W3C//DTD SVG 20010904//EN"
 "http://www.w3.org/TR/2001/REC-SVG-20010904/DTD/svg10.dtd">
<svg version="1.0" xmlns="http://www.w3.org/2000/svg"
 width="1792.000000pt" height="1792.000000pt" viewBox="0 0 1792.000000 1792.000000"
 preserveAspectRatio="xMidYMid meet">
<metadata>
Created by potrace 1.14, written by Peter Selinger 2001-2017
</metadata>
<g transform="translate(0.000000,1792.000000) scale(0.100000,-0.100000)"
fill="#000000" stroke="none">
<path d="M7000 15120 c-96 -5 -209 -17 -270 -29 -58 -12 -158 -26 -222 -31
-65 -5 -134 -14 -155 -19 -21 -6 -69 -17 -108 -26 -38 -9 -108 -26 -155 -37
-47 -11 -115 -26 -152 -34 -37 -7 -107 -29 -157 -49 -50 -19 -98 -35 -107 -35
-8 0 -48 -13 -87 -29 -40 -15 -88 -32 -107 -36 -19 -4 -57 -17 -85 -30 -27
-13 -97 -45 -155 -70 -194 -85 -246 -110 -350 -168 -30 -17 -82 -44 -115 -61
-107 -56 -317 -187 -380 -239 -16 -13 -41 -30 -55 -37 -31 -16 -84 -57 -170
-130 -36 -31 -99 -81 -140 -112 -71 -54 -473 -448 -493 -483 -5 -9 -47 -60
-94 -114 -47 -53 -100 -118 -119 -146 -18 -27 -51 -75 -73 -105 -21 -30 -52
-75 -67 -100 -15 -25 -30 -47 -34 -50 -4 -3 -15 -21 -25 -40 -10 -19 -28 -48
-41 -63 -13 -16 -24 -33 -24 -37 0 -8 -37 -76 -120 -220 -19 -33 -68 -147 -80
-185 -7 -22 -20 -53 -30 -70 -10 -16 -29 -63 -44 -103 -14 -39 -32 -82 -40
-95 -8 -12 -20 -49 -26 -82 -7 -33 -20 -79 -31 -103 -10 -24 -23 -69 -29 -102
-6 -32 -19 -83 -29 -113 -11 -30 -27 -106 -36 -168 -9 -63 -27 -168 -40 -234
-45 -229 -43 -811 3 -1020 11 -49 28 -142 36 -206 9 -63 28 -147 41 -185 14
-38 25 -82 25 -99 0 -16 14 -68 30 -115 17 -46 30 -93 30 -105 0 -11 11 -41
25 -67 14 -26 37 -80 51 -120 15 -40 32 -82 39 -93 7 -11 16 -31 20 -45 20
-71 153 -330 242 -469 15 -25 30 -49 32 -54 2 -5 37 -57 77 -116 40 -58 84
-121 96 -139 13 -19 54 -71 92 -115 38 -45 93 -113 122 -152 29 -38 121 -137
204 -220 l152 -150 -4 -51 c-4 -44 -52 -164 -100 -249 -7 -11 -22 -40 -35 -63
-13 -24 -34 -58 -46 -75 -101 -138 -145 -194 -216 -272 -44 -49 -81 -93 -81
-96 0 -3 -46 -46 -101 -95 -56 -49 -116 -102 -133 -117 -43 -39 -279 -214
-346 -258 -30 -20 -85 -55 -123 -79 -107 -68 -157 -147 -157 -251 0 -60 37
-143 87 -194 38 -39 152 -125 165 -125 5 0 25 -11 46 -24 20 -14 57 -30 82
-36 24 -7 66 -23 91 -36 58 -29 307 -82 449 -96 125 -12 692 -4 765 11 28 5
109 17 180 26 185 23 306 44 415 71 52 13 105 24 117 24 12 0 64 13 115 29 51
16 120 35 153 44 88 22 223 71 279 101 27 14 56 26 64 26 9 0 38 13 66 29 28
15 67 31 87 35 21 3 48 15 60 25 13 10 42 26 64 37 22 10 63 33 92 51 29 18
54 33 57 33 3 0 25 13 48 29 24 15 70 46 103 67 33 21 62 41 65 44 3 3 32 27
65 52 33 25 74 60 90 78 51 54 81 61 214 50 64 -6 166 -19 226 -30 219 -38
997 -35 1195 4 41 8 131 20 199 26 69 5 159 19 200 30 42 12 132 34 201 50
183 42 248 59 315 81 33 11 92 29 130 39 39 10 97 30 130 44 33 14 66 26 73
26 8 0 41 13 75 29 131 62 204 94 252 108 28 8 61 23 75 33 14 9 36 21 50 25
23 7 98 49 195 108 22 14 51 28 65 32 14 4 44 21 67 36 23 16 46 29 52 29 5 0
16 6 23 13 19 19 176 124 257 172 18 11 90 65 160 120 70 55 143 111 162 125
113 84 418 387 538 535 41 50 81 97 90 105 31 29 197 259 263 365 17 28 41 66
53 85 12 19 46 78 75 130 29 52 63 111 76 130 12 19 25 46 29 60 4 14 15 39
25 55 10 17 30 59 43 95 14 36 46 115 72 175 26 61 55 145 65 188 10 43 25 93
34 112 9 19 21 59 27 90 5 30 16 70 23 87 8 18 24 92 36 163 12 72 31 171 42
220 47 208 46 878 -1 1060 -11 44 -21 98 -21 120 0 22 -14 96 -31 165 -17 69
-37 154 -45 189 -8 35 -23 82 -33 105 -11 22 -24 70 -31 105 -6 36 -22 85 -34
110 -13 25 -27 57 -31 71 -7 26 -71 175 -105 245 -11 22 -24 53 -30 70 -9 24
-116 216 -193 345 -22 38 -94 146 -145 219 -17 25 -47 69 -66 97 -19 28 -57
75 -84 105 -26 30 -70 81 -96 114 -56 70 -447 467 -491 498 -16 12 -74 57
-128 102 -128 105 -144 116 -332 243 -158 106 -197 131 -325 199 -36 19 -87
47 -115 62 -93 51 -110 60 -185 96 -41 19 -79 35 -83 35 -5 0 -45 17 -90 39
-135 63 -200 90 -247 102 -25 6 -64 19 -86 30 -23 10 -62 23 -86 28 -25 6 -78
24 -119 40 -41 16 -102 34 -136 41 -35 6 -81 17 -103 25 -22 8 -89 23 -150 34
-60 11 -118 25 -129 30 -10 6 -61 15 -112 21 -217 25 -259 30 -364 49 -89 16
-171 21 -430 24 -176 3 -394 2 -485 -3z m2558 -3221 c61 -13 150 -88 182 -155
19 -38 22 -57 18 -118 -4 -61 -10 -80 -36 -118 -51 -74 -120 -118 -200 -129
-86 -11 -4243 -11 -4338 0 -89 10 -144 45 -200 126 -33 49 -39 65 -42 123 -5
86 13 129 81 197 92 92 -139 83 2314 84 1486 1 2188 -2 2221 -10z m-1804
-1643 c35 -24 69 -59 92 -95 34 -54 35 -59 32 -136 -3 -72 -7 -85 -37 -130
-19 -28 -57 -66 -85 -85 l-51 -35 -1290 0 -1290 0 -52 33 c-53 34 -87 72 -118
131 -13 26 -16 52 -13 106 3 63 8 79 38 124 42 61 108 109 164 121 22 4 606 7
1297 7 l1257 -2 56 -39z m1794 34 c120 -22 212 -137 212 -263 0 -57 -4 -70
-39 -124 -22 -35 -59 -74 -87 -94 l-49 -34 -440 -3 c-242 -2 -463 -1 -491 3
-90 11 -178 84 -213 179 -16 40 -13 131 4 172 33 80 117 151 195 164 67 11
849 12 908 0z"/>
<path d="M12644 11705 c-6 -26 13 -214 36 -345 24 -137 32 -335 26 -630 -6
-262 -10 -323 -31 -430 -13 -69 -26 -161 -30 -205 -4 -44 -13 -103 -21 -132
-8 -28 -23 -95 -34 -147 -11 -52 -27 -112 -36 -133 -8 -21 -28 -85 -44 -143
-32 -120 -74 -242 -96 -282 -8 -15 -23 -51 -33 -80 -38 -109 -143 -325 -263
-543 -47 -86 -113 -190 -205 -323 -32 -46 -67 -98 -77 -115 -11 -18 -63 -84
-115 -148 -53 -63 -109 -133 -126 -154 -63 -83 -506 -516 -624 -611 -178 -143
-217 -172 -307 -234 -44 -30 -109 -75 -144 -100 -92 -65 -149 -100 -295 -181
-282 -156 -376 -205 -422 -219 -21 -7 -93 -39 -160 -71 -66 -32 -144 -64 -171
-73 -28 -8 -61 -21 -74 -29 -12 -8 -50 -21 -83 -27 -33 -7 -76 -21 -96 -31
-20 -10 -58 -23 -85 -30 -27 -7 -81 -25 -120 -40 -39 -16 -111 -35 -160 -43
-49 -8 -115 -24 -146 -35 -31 -10 -83 -22 -115 -26 -32 -3 -87 -15 -123 -25
-36 -11 -135 -26 -220 -35 -85 -9 -186 -22 -225 -29 -159 -31 -214 -36 -515
-42 -298 -5 -542 3 -725 26 -38 5 -100 12 -136 15 l-66 8 -92 -62 c-50 -33
-96 -61 -101 -61 -19 0 -50 -54 -50 -88 0 -28 17 -61 80 -153 167 -246 290
-398 500 -613 166 -170 363 -347 495 -444 6 -4 30 -23 55 -43 46 -36 158 -115
190 -134 10 -6 35 -22 56 -36 48 -32 228 -143 309 -191 33 -19 75 -40 93 -46
18 -6 45 -20 60 -30 15 -10 42 -24 60 -30 18 -6 46 -21 62 -32 16 -11 55 -30
86 -40 31 -11 62 -24 69 -30 7 -6 38 -19 71 -30 32 -11 68 -27 80 -35 12 -7
50 -21 85 -30 35 -9 77 -24 93 -32 41 -21 323 -113 347 -113 10 0 51 -11 91
-24 40 -14 109 -30 153 -36 44 -6 107 -20 140 -30 33 -10 116 -26 185 -35 69
-8 150 -20 180 -25 227 -40 293 -44 690 -43 322 1 413 4 490 17 218 39 393 59
439 51 23 -4 55 -26 95 -64 34 -31 86 -75 116 -98 74 -55 271 -183 282 -183 5
0 21 -8 36 -19 52 -35 192 -111 205 -111 7 0 44 -16 83 -35 38 -19 76 -35 84
-35 8 0 42 -14 75 -30 33 -17 67 -30 76 -30 9 0 47 -13 85 -28 38 -16 94 -34
124 -41 30 -7 89 -23 130 -37 41 -13 122 -33 180 -45 58 -11 124 -24 148 -29
37 -8 208 -32 432 -61 255 -33 778 -36 940 -5 183 35 308 66 345 85 21 12 49
21 60 21 51 0 239 121 318 204 42 46 77 129 77 185 0 87 -61 188 -145 241
-147 93 -224 146 -374 260 -232 177 -410 351 -540 529 -20 27 -52 70 -71 95
-82 109 -180 298 -204 392 -9 34 -16 65 -16 69 0 4 78 87 173 184 153 158 313
343 388 449 14 21 43 62 64 92 42 60 113 166 163 244 18 27 32 55 32 61 0 6
13 29 28 51 16 21 48 77 72 124 24 47 56 110 71 141 16 31 29 63 29 70 0 8 10
32 21 54 12 22 32 69 44 105 13 36 34 88 47 115 14 28 31 77 38 110 7 33 18
72 26 86 7 14 18 57 25 95 6 38 20 90 29 115 10 25 26 99 35 165 9 65 26 157
36 204 38 163 50 785 19 937 -5 26 -24 134 -41 238 -17 105 -40 217 -50 250
-10 33 -23 89 -29 125 -6 35 -19 78 -27 95 -9 16 -24 59 -34 95 -39 148 -248
617 -311 699 -10 14 -28 43 -38 65 -32 65 -157 257 -243 371 -166 223 -492
569 -702 746 -80 68 -299 237 -365 281 -66 45 -174 116 -211 138 -24 14 -65
40 -93 59 -28 18 -103 60 -166 93 -63 32 -122 63 -130 68 -48 31 -215 103
-249 107 -37 5 -40 4 -47 -22z"/>
</g>
</svg>
