<?xml version="1.0" standalone="no"?>
<!DOCTYPE svg PUBLIC "-//W3C//DTD SVG 20010904//EN"
 "http://www.w3.org/TR/2001/REC-SVG-20010904/DTD/svg10.dtd">
<svg version="1.0" xmlns="http://www.w3.org/2000/svg"
 width="950.000000pt" height="950.000000pt" viewBox="0 0 950.000000 950.000000"
 preserveAspectRatio="xMidYMid meet">
<metadata>
Created by potrace 1.14, written by Peter Selinger 2001-2017
</metadata>
<g transform="translate(0.000000,950.000000) scale(0.100000,-0.100000)"
fill="#000000" stroke="none">
<path d="M0 4750 l0 -4750 4750 0 4750 0 0 4750 0 4750 -4750 0 -4750 0 0
-4750z m5702 2539 c184 -39 349 -203 387 -387 7 -32 11 -181 11 -382 l0 -330
908 0 c553 0 934 -4 976 -10 133 -20 276 -111 346 -220 18 -28 45 -81 59 -118
l26 -67 3 -1164 c2 -1136 2 -1166 -17 -1243 -43 -168 -163 -301 -327 -359 -43
-16 -93 -23 -186 -26 l-127 -6 -3 -363 -3 -362 -24 -26 c-19 -20 -34 -26 -65
-26 -39 0 -46 6 -431 390 l-391 390 -1485 0 c-1016 0 -1504 3 -1545 11 -142
26 -276 122 -348 251 -60 108 -66 152 -66 521 l0 327 -472 0 -473 -1 -390
-384 c-214 -211 -401 -386 -414 -390 -31 -8 -75 11 -90 38 -8 15 -12 136 -14
381 l-2 360 -65 17 c-85 21 -113 34 -186 86 -89 61 -161 166 -190 278 -11 40
-14 277 -14 1226 0 1052 2 1181 16 1230 52 174 196 313 367 355 71 17 4148 20
4229 3z"/>
<path d="M4965 4851 c-129 -34 -208 -135 -209 -266 -1 -84 23 -144 78 -197 53
-51 100 -71 179 -76 84 -5 144 15 203 70 63 58 87 124 82 219 -4 65 -10 85
-36 126 -51 79 -119 121 -209 128 -32 2 -71 1 -88 -4z"/>
<path d="M5827 4846 c-137 -51 -216 -185 -187 -318 13 -65 39 -107 95 -156
107 -94 280 -82 377 26 52 57 70 105 71 184 0 150 -107 265 -258 275 -36 2
-75 -2 -98 -11z"/>
<path d="M6709 4847 c-125 -47 -189 -136 -189 -264 1 -156 114 -273 264 -273
90 0 134 17 198 80 46 45 60 66 73 114 50 173 -69 341 -250 353 -35 2 -75 -2
-96 -10z"/>
</g>
</svg>
